<svg width="152" height="51" viewBox="0 0 152 51" fill="none" xmlns="http://www.w3.org/2000/svg">
<path fill-rule="evenodd" clip-rule="evenodd" d="M126.921 48.2955C140.257 48.2955 151.068 37.4842 151.068 24.1477C151.068 10.8113 140.257 0 126.921 0C113.584 0 102.773 10.8113 102.773 24.1477C102.773 37.4842 113.584 48.2955 126.921 48.2955Z" fill="#3CEB94"/>
<path d="M8.45673 16.4783H0.148364V11.5823H22.7738V16.4783H14.4655V37.5459H8.45673V16.4783ZM46.1101 32.7241V37.5459H26.0068V11.5823H45.6279V16.4041H31.9784V22.0419H44.033V26.7154H31.9784V32.7241H46.1101ZM74.5179 37.5459L74.4809 21.9677L66.8401 34.8012H64.1325L56.5289 22.3015V37.5459H50.891V11.5823H55.8612L65.579 27.7168L75.1485 11.5823H80.0816L80.1558 37.5459H74.5179ZM97.5543 11.5823C99.8539 11.5823 101.844 11.9655 103.526 12.7321C105.232 13.4986 106.543 14.5866 107.458 15.9961C108.372 17.4055 108.83 19.0746 108.83 21.0034C108.83 22.9074 108.372 24.5764 107.458 26.0106C106.543 27.4201 105.232 28.5081 103.526 29.2746C101.844 30.0164 99.8539 30.3874 97.5543 30.3874H92.3245V37.5459H86.3158V11.5823H97.5543ZM97.2205 25.4914C99.0256 25.4914 100.398 25.1081 101.338 24.3415C102.277 23.5503 102.747 22.4375 102.747 21.0034C102.747 19.5444 102.277 18.4317 101.338 17.6652C100.398 16.8739 99.0256 16.4783 97.2205 16.4783H92.3245V25.4914H97.2205ZM126.056 37.991C123.36 37.991 120.925 37.4099 118.749 36.2477C116.598 35.0855 114.904 33.4906 113.667 31.463C112.456 29.4106 111.85 27.111 111.85 24.5641C111.85 22.0172 112.456 19.7299 113.667 17.7023C114.904 15.6499 116.598 14.0426 118.749 12.8804C120.925 11.7183 123.36 11.1372 126.056 11.1372C128.751 11.1372 131.174 11.7183 133.326 12.8804C135.477 14.0426 137.171 15.6499 138.407 17.7023C139.643 19.7299 140.262 22.0172 140.262 24.5641C140.262 27.111 139.643 29.4106 138.407 31.463C137.171 33.4906 135.477 35.0855 133.326 36.2477C131.174 37.4099 128.751 37.991 126.056 37.991ZM126.056 32.8724C127.589 32.8724 128.974 32.5263 130.21 31.8339C131.446 31.1168 132.411 30.1277 133.103 28.8666C133.82 27.6055 134.179 26.1714 134.179 24.5641C134.179 22.9568 133.82 21.5226 133.103 20.2615C132.411 19.0004 131.446 18.0237 130.21 17.3314C128.974 16.6143 127.589 16.2557 126.056 16.2557C124.523 16.2557 123.138 16.6143 121.902 17.3314C120.665 18.0237 119.688 19.0004 118.971 20.2615C118.279 21.5226 117.933 22.9568 117.933 24.5641C117.933 26.1714 118.279 27.6055 118.971 28.8666C119.688 30.1277 120.665 31.1168 121.902 31.8339C123.138 32.5263 124.523 32.8724 126.056 32.8724Z" fill="white"/>
<line x1="11.591" y1="49.0682" x2="72.6365" y2="49.0682" stroke="#3CEB94" stroke-width="3.86364" stroke-linecap="round"/>
</svg>
